<svg id="图层_1" data-name="图层 1" xmlns="http://www.w3.org/2000/svg" viewBox="0 0 117 117"><defs><style>.cls-1,.cls-3{fill:#fff;}.cls-2{fill:#5dacf8;}.cls-3{stroke:#5dacf8;stroke-miterlimit:10;stroke-width:3px;}</style></defs><title>升压站</title><circle class="cls-1" cx="58.5" cy="58.5" r="58.5"/><rect class="cls-2" x="25.86" y="38.36" width="64.36" height="3.17"/><rect class="cls-2" x="28.82" y="41.13" width="2.96" height="1.98"/><rect class="cls-2" x="36.58" y="41.13" width="2.96" height="1.98"/><rect class="cls-2" x="44.72" y="41.13" width="2.96" height="1.98"/><rect class="cls-2" x="52.49" y="41.13" width="2.96" height="1.98"/><rect class="cls-2" x="60.63" y="41.13" width="2.96" height="1.98"/><rect class="cls-2" x="68.39" y="41.13" width="2.96" height="1.98"/><rect class="cls-2" x="76.53" y="41.13" width="2.96" height="1.98"/><rect class="cls-2" x="84.3" y="41.13" width="2.96" height="1.98"/><rect class="cls-2" x="39.54" y="88.62" width="37.36" height="5.11"/><rect class="cls-2" x="32.14" y="95.57" width="51.78" height="3.33"/><rect class="cls-2" x="45.74" y="17.73" width="2.22" height="2.78"/><rect class="cls-2" x="42.41" y="22.1" width="8.88" height="0.79"/><rect class="cls-2" x="42.41" y="24.08" width="8.88" height="0.79"/><rect class="cls-2" x="42.41" y="26.06" width="8.88" height="0.79"/><rect class="cls-2" x="42.41" y="28.05" width="8.88" height="0.79"/><rect class="cls-2" x="42.41" y="30.03" width="8.88" height="0.79"/><rect class="cls-2" x="42.41" y="32.01" width="8.88" height="0.79"/><rect class="cls-2" x="42.41" y="33.99" width="8.88" height="0.79"/><rect class="cls-2" x="44.26" y="20.11" width="5.18" height="14.67" rx="0.74"/><rect class="cls-2" x="57.57" y="17.73" width="2.22" height="2.78"/><rect class="cls-2" x="54.24" y="22.1" width="8.88" height="0.79"/><rect class="cls-2" x="54.24" y="24.08" width="8.88" height="0.79"/><rect class="cls-2" x="54.24" y="26.06" width="8.88" height="0.79"/><rect class="cls-2" x="54.24" y="28.05" width="8.88" height="0.79"/><rect class="cls-2" x="54.24" y="30.03" width="8.88" height="0.79"/><rect class="cls-2" x="54.24" y="32.01" width="8.88" height="0.79"/><rect class="cls-2" x="54.24" y="33.99" width="8.88" height="0.79"/><rect class="cls-2" x="56.09" y="20.11" width="5.18" height="14.67" rx="0.74"/><rect class="cls-2" x="69.41" y="17.73" width="2.22" height="2.78"/><rect class="cls-2" x="66.08" y="22.1" width="8.88" height="0.79"/><rect class="cls-2" x="66.08" y="24.08" width="8.88" height="0.79"/><rect class="cls-2" x="66.08" y="26.06" width="8.88" height="0.79"/><rect class="cls-2" x="66.08" y="28.05" width="8.88" height="0.79"/><rect class="cls-2" x="66.08" y="30.03" width="8.88" height="0.79"/><rect class="cls-2" x="66.08" y="32.01" width="8.88" height="0.79"/><rect class="cls-2" x="66.08" y="33.99" width="8.88" height="0.79"/><rect class="cls-2" x="67.93" y="20.11" width="5.18" height="14.67" rx="0.74"/><path class="cls-2" d="M174.51,48.19V88.27h51.05V48.19ZM183,52.48a1.11,1.11,0,0,0-2.22,0V84a1.11,1.11,0,0,0,2.16.34,2.41,2.41,0,0,1-4.75-.52V52.3a2.41,2.41,0,0,1,4.81,0Zm6.29,0a1.11,1.11,0,0,0-2.22,0V84a1.11,1.11,0,0,0,2.16.34,2.41,2.41,0,0,1-4.75-.52V52.3a2.41,2.41,0,0,1,4.81,0Zm6.66,0a1.11,1.11,0,0,0-2.22,0V84a1.11,1.11,0,0,0,2.16.34,2.39,2.39,0,0,1-2.35,1.81,2.37,2.37,0,0,1-2.4-2.33V52.3a2.41,2.41,0,0,1,4.81,0Zm6.66,0a1.11,1.11,0,0,0-2.22,0V84a1.11,1.11,0,0,0,2.15.34,2.41,2.41,0,0,1-4.74-.52V52.3a2.41,2.41,0,0,1,4.81,0Zm6.65,0a1.11,1.11,0,0,0-2.22,0V84a1.11,1.11,0,0,0,2.16.34,2.41,2.41,0,0,1-4.75-.52V52.3a2.41,2.41,0,0,1,4.81,0Zm6.66,0a1.11,1.11,0,0,0-2.22,0V84a1.11,1.11,0,0,0,2.16.34,2.41,2.41,0,0,1-4.75-.52V52.3a2.41,2.41,0,0,1,4.81,0Zm7.77,0a1.11,1.11,0,0,0-2.22,0V84a1.11,1.11,0,0,0,2.16.34,2.39,2.39,0,0,1-2.35,1.81,2.37,2.37,0,0,1-2.4-2.33V52.3a2.41,2.41,0,0,1,4.81,0Z" transform="translate(-142 -1)"/><rect class="cls-2" x="32.51" y="44.6" width="51.04" height="3.23"/><rect class="cls-2" x="32.51" y="87.27" width="51.04" height="1.94"/><polygon class="cls-3" points="55.51 53.01 48.97 70.2 57.52 70.2 54.5 83.39 66.58 65.04 56.52 65.04 64.06 53.01 55.51 53.01"/><rect class="cls-2" x="22.95" y="49.77" width="7.76" height="36.2"/><rect class="cls-2" x="85.33" y="49.13" width="7.76" height="36.2"/></svg>