<svg id="图层_1" data-name="图层 1" xmlns="http://www.w3.org/2000/svg" viewBox="0 0 300 300"><defs><style>.cls-1{fill:#3b91ff;}</style></defs><title>首页4图标</title><path class="cls-1" d="M36,164.05v62.41h76.21V141.87Zm46.73,46.81H65.44V193.61H82.69Zm0-24.15H65.44V169.47H82.69Z"/><path class="cls-1" d="M112,164.05v62.41h76.21V141.87Zm46.73,46.81H141.43V193.61h17.25Zm0-24.15H141.43V169.47h17.25Z"/><path class="cls-1" d="M187.83,164.05v62.41H264V141.87Zm46.73,46.81H217.31V193.61h17.25Zm0-24.15H217.31V169.47h17.25Z"/><polygon class="cls-1" points="224.37 139.31 223.2 139.31 228.1 121.97 212.34 121.99 219.72 101.06 233.72 101.06 229 113.51 242.18 113.53 224.37 139.31"/><path class="cls-1" d="M251.42,79.54v-6H106.27v48.18h4V93.35H247.45v54.37h4V80.23Q251.45,79.88,251.42,79.54Z"/><polygon class="cls-1" points="170.74 114.5 162.78 114.5 55.02 114.5 50.61 114.5 45.08 114.5 45.08 121.19 45.08 124.45 45.08 180.69 49.08 180.69 49.08 134.72 172.26 134.72 172.26 180.69 176.26 180.69 176.26 127.98 176.26 121.19 176.26 114.5 170.74 114.5"/></svg>