<svg id="图层_1" data-name="图层 1" xmlns="http://www.w3.org/2000/svg" viewBox="0 0 300 300"><defs><style>.cls-1{fill:#94e7b1;}</style></defs><title>首页4图标</title><path class="cls-1" d="M257.91,137.73c-.88-5.2-3.17-9.18-9.31-8.91a133,133,0,0,1-18.08,0,8.49,8.49,0,0,1-5.8-4.38c-2.43-5.94-3.91-12.35-5.93-18.48a13,13,0,0,0-13.5-10.12q-55.35-.21-110.43-.14a13.1,13.1,0,0,0-14.3,10.93c-1.89,5.8-3.84,11.47-5.26,17.34a5.45,5.45,0,0,1-5.92,5l-.35,0H49.73A7.62,7.62,0,0,0,42,136.4c0,.31,0,.62,0,.92a11,11,0,0,0,5.2,7.63,88.74,88.74,0,0,0,15,5.73c-3.51,3.37-6,6-8.7,8.43a23.23,23.23,0,0,0-9.65,20.78c.61,5.53.41,11.13.47,16.73v38.52c-.06,6.14,2.5,9,8.57,9H73.61c5.06,0,7.56-2.43,7.56-7.76V225H218.38v11.33c0,4.93,2.36,7.69,6.75,7.69a204,204,0,0,0,23.2,0c2.36,0,4.72-3.57,6.34-6s0-4,0-6c0-17.27,0-34.54.48-51.81A23.69,23.69,0,0,0,246.24,160c-2.9-2.36-5.53-5.19-9.11-8.57,5.4-2,9.52-3.78,13.5-5.26s8-3.24,7.28-8.43ZM91,114.72A14.29,14.29,0,0,1,101.81,108c32-.54,64.09-.34,96.06,0a11.6,11.6,0,0,1,12,9.17c2.56,8.77,5.33,17.47,8.23,27H81.3A276.7,276.7,0,0,1,91,114.72Zm2.49,75.42c-3.57.48-7.21.48-11.87.81s-10.45-.54-16.19-1-9-5.33-7.82-13.49a7.56,7.56,0,0,1,8.27-6.77,7.89,7.89,0,0,1,1.85.43l25.49,5.67a8,8,0,0,1,7.29,8.09C100.66,189.06,97,190.14,93.51,190.14Zm146-17.74A18,18,0,0,1,241.25,185c-.88,2.7-5.8,4.32-9.18,5.6a31,31,0,0,1-6.74.34h-18a7.5,7.5,0,0,1-8.17-6.75,6.76,6.76,0,0,1,6-7.46l.39,0c7.69-1.41,15.31-3.44,22.93-5.39,4-1.35,8.7-3,11.07,1.41Z"/></svg>