<svg id="图层_1" data-name="图层 1" xmlns="http://www.w3.org/2000/svg" viewBox="0 0 200 200"><defs><style>.cls-1{fill:#fff;}.cls-2{fill:#94e7b1;}</style></defs><title>雪山2.0导航版</title><circle class="cls-1" cx="100" cy="100" r="98"/><path class="cls-2" d="M170,84.47c-.57-3.37-2.06-6-6-5.78a85,85,0,0,1-11.73,0,5.52,5.52,0,0,1-3.77-2.84c-1.58-3.85-2.54-8-3.85-12a8.44,8.44,0,0,0-8.76-6.56Q100,57.16,64.22,57.2a8.49,8.49,0,0,0-9.28,7.09c-1.23,3.77-2.5,7.44-3.42,11.25a3.54,3.54,0,0,1-3.84,3.22l-.23,0H34.93a5,5,0,0,0-5,4.87q0,.3,0,.6a7.19,7.19,0,0,0,3.37,5,57.65,57.65,0,0,0,9.77,3.72c-2.28,2.19-3.9,3.89-5.65,5.47a15,15,0,0,0-6.26,13.48c.39,3.59.26,7.23.3,10.86v25c0,4,1.62,5.82,5.56,5.82h13.4c3.28,0,4.9-1.58,4.9-5v-7.35h89.05v7.35c0,3.2,1.53,5,4.37,5a130.46,130.46,0,0,0,15.06,0c1.53,0,3.07-2.32,4.12-3.89s0-2.58,0-3.9c0-11.2,0-22.41.3-33.62a15.37,15.37,0,0,0-5.77-13.13c-1.89-1.53-3.59-3.37-5.91-5.56,3.5-1.31,6.17-2.45,8.75-3.42s5.21-2.1,4.73-5.47ZM61.72,69.54a9.31,9.31,0,0,1,7-4.37c20.79-.35,41.59-.22,62.34,0a7.52,7.52,0,0,1,7.79,6c1.66,5.69,3.46,11.34,5.34,17.51H55.42a180.64,180.64,0,0,1,6.3-19.09Zm1.62,48.95c-2.32.3-4.68.3-7.7.52s-6.79-.35-10.51-.65-5.86-3.46-5.08-8.76a4.91,4.91,0,0,1,5.37-4.39,5,5,0,0,1,1.2.27l16.55,3.68a5.22,5.22,0,0,1,4.73,5.26C68,117.79,65.62,118.49,63.34,118.49ZM158.08,107a11.72,11.72,0,0,1,1.14,8.15c-.57,1.75-3.77,2.8-6,3.63a20,20,0,0,1-4.38.22H137.2a4.86,4.86,0,0,1-5.3-4.38,4.38,4.38,0,0,1,3.86-4.84l.25,0c5-.92,9.94-2.23,14.89-3.5,2.62-.88,5.65-2,7.18.92Z"/></svg>