<svg id="图层_1" data-name="图层 1" xmlns="http://www.w3.org/2000/svg" viewBox="0 0 300 300"><defs><style>.cls-1{fill:#f8a3a3;}</style></defs><title>首页4图标</title><polygon class="cls-1" points="143.2 180.65 133.03 270.87 166.97 270.87 156.76 180.66 143.2 180.66 143.2 180.65"/><path class="cls-1" d="M136.84,148.23a11.11,11.11,0,0,1,.56-3.47l-.24-.36H120.88L47.47,205.69c-2.55,7.34,4.15,4.14,4.15,4.14l92.19-51.25A11.17,11.17,0,0,1,136.84,148.23Z"/><path class="cls-1" d="M250.79,201,159,146a11.45,11.45,0,0,1,.23,2.28,11.16,11.16,0,0,1-7.38,10.5l-.44.89,8.13,14.1,89.78,32.93C256.91,205.19,250.79,201,250.79,201Z"/><path class="cls-1" d="M169,126.22l-9.42,16.32,15.92,9.54v-28a4.32,4.32,0,0,0-4.31-4.31h-3.3Z"/><path class="cls-1" d="M147.86,160l-26.12,14.52a4.21,4.21,0,0,0,2.49.81h32.48Z"/><path class="cls-1" d="M138.55,141.17l.35-21.35H124.23a4.32,4.32,0,0,0-4.31,4.31v17Z"/><path class="cls-1" d="M148,137.06a11.11,11.11,0,0,1,7.36,2.78l2.07-.12,8.14-14.1L149.21,31.4c-5.08-5.88-5.67,1.52-5.67,1.52l-1.72,106A11.13,11.13,0,0,1,148,137.06Z"/></svg>