<svg t="1595828235449" class="icon" viewBox="0 0 1024 1024" version="1.1" xmlns="http://www.w3.org/2000/svg" p-id="1424" width="200" height="200"><path d="M450.248076 178.599677c63.956637 71.1382 50.138934 155.997913 50.138934 155.997913-3.279696 105.293091 66.12707 14.084787 66.12707 14.084787 50.459229-57.018621 89.959871-214.474746 89.959871-214.474746C665.249825-10.055007 450.248076 89.815585 450.248076 89.815585 382.240169 131.526569 450.248076 178.599677 450.248076 178.599677z" p-id="1425"></path><path d="M195.368084 382.249891c93.549629-19.854187 160.13821 34.525328 160.13821 34.525328 89.558735 55.510268 45.267996-50.205449 45.267996-50.205449-24.158213-72.224951-140.763954-185.132464-140.763954-185.132464C139.455657 101.682867 118.452297 337.814866 118.452297 337.814866 120.562355 417.569304 195.368084 382.249891 195.368084 382.249891z" p-id="1426"></path><path d="M346.057085 527.634072c-73.006757-21.649066-232.389768 9.072633-232.389768 9.072633-134.455271 53.043077 46.917566 205.694779 46.917566 205.694779 66.552765 44.021609 80.489172-37.535895 80.489172-37.535895 37.394678-88.025822 120.15866-111.355157 120.15866-111.355157C458.066135 551.965224 346.057085 527.634072 346.057085 527.634072z" p-id="1427"></path><path d="M566.661436 818.817897c-63.953567-71.103408-50.13791-155.997913-50.13791-155.997913 3.279696-105.256252-66.131163-14.09195-66.131163-14.09195-50.451042 57.062624-89.952708 214.482933-89.952708 214.482933-8.779967 144.298454 206.221782 44.392046 206.221782 44.392046C634.672412 865.926822 566.661436 818.817897 566.661436 818.817897z" p-id="1428"></path><path d="M825.747215 605.551676c-93.553723 19.854187-160.142304-34.525328-160.142304-34.525328-89.560782-55.510268-45.271066 50.197262-45.271066 50.197262 24.162306 72.233138 140.768047 185.140651 140.768047 185.140651C881.651456 886.117676 902.659933 649.986701 902.659933 649.986701 900.544759 570.232263 825.747215 605.551676 825.747215 605.551676z" p-id="1429"></path><path d="M856.6132 250.789836c-66.544579-44.020586-80.489172 37.535895-80.489172 37.535895C738.737536 376.315738 655.973554 399.680888 655.973554 399.680888c-96.833419 41.503253 15.170514 65.87636 15.170514 65.87636 73.003687 21.617343 232.394884-9.116635 232.394884-9.116635C1037.990131 403.441539 856.6132 250.789836 856.6132 250.789836z" p-id="1430"></path><path d="M504.296039 398.465201c-56.389288 0-102.099353 45.729507-102.099353 102.117772 0 56.393381 45.709041 102.121865 102.099353 102.121865 56.408731 0 102.117772-45.729507 102.117772-102.121865C606.413811 444.193685 560.70477 398.465201 504.296039 398.465201z" p-id="1431"></path></svg>