<?xml version="1.0" encoding="utf-8"?>
<!-- Generator: Adobe Illustrator 23.0.3, SVG Export Plug-In . SVG Version: 6.00 Build 0)  -->
<svg version="1.1" id="图层_1" xmlns="http://www.w3.org/2000/svg" xmlns:xlink="http://www.w3.org/1999/xlink" x="0px" y="0px"
	 viewBox="0 0 120 120" style="enable-background:new 0 0 120 120;" xml:space="preserve">
<style type="text/css">
	.st0{fill:#FFFFFF;}
	.st1{fill:#FB7F65;}
</style>
<g>
	<circle class="st0" cx="59.95" cy="59.85" r="59.22"/>
	<g>
		<g>
			<path class="st1" d="M58.05,57.25c2.22,3.33,4.21,6.44,6.21,9.77c0.24,0.4,0.4,0.86,0.45,1.33v33.95
				c0.03,0.24-0.06,0.49-0.22,0.67h-6.44V57.25z M61.61,41.94c4.43-6.88,8.42-14.2,14.86-19.97c0.22,0,0.45,0.22,0.67,0.22
				c0.07,0.91-0.08,1.83-0.45,2.66c-2.22,5.33-4.44,10.43-6.88,15.76c-0.88,1.78-1.78,3.33-2.66,4.88
				C65.38,44.15,63.61,43.27,61.61,41.94L61.61,41.94z M29.88,49.04c0.63-0.52,1.4-0.83,2.22-0.88c4.21-0.67,8.44-1.33,12.65-1.78
				c3.33-0.22,6.88,0,10.2,0v5.99C48.3,53.26,32.09,51.26,29.88,49.04L29.88,49.04z M76.7,76.56c-1.11-0.88-2-1.55-2.66-2.22
				c-3.33-4.44-6.66-8.87-9.77-13.53c-1.11-1.55-2-3.11-2.88-4.44c2-1.11,3.78-2.22,5.54-3.33C70.93,58.36,77.14,73.01,76.7,76.56
				L76.7,76.56z M61.16,52.59c-1.81,0-3.28-1.45-3.32-3.26c-0.03-1.81,1.38-3.32,3.18-3.4c1.8-0.08,3.35,1.3,3.47,3.1
				C64.54,50.94,63.06,52.52,61.16,52.59L61.16,52.59z M90.02,70.35"/>
		</g>
	</g>
</g>
</svg>
