<svg t="1595828035924" class="icon" viewBox="0 0 1024 1024" version="1.1" xmlns="http://www.w3.org/2000/svg" p-id="1757" width="200" height="200"><path d="M626.2 588.4C686 549 727.6 480.3 734.6 400H764c15.5 0 28-12.5 28-28s-12.5-28-28-28c0-154.6-97.3-280-252-280S260 189.4 260 344c-15.5 0-28 12.5-28 28s12.5 28 28 28h29.4c6.9 80.3 48.6 149 108.3 188.4C268.5 635.2 176 758.6 176 904c0 14.3 5.5 28.7 16.4 39.6S217.7 960 232 960h560c14.3 0 28.7-5.5 39.6-16.4S848 918.3 848 904c0-145.4-92.5-268.8-221.8-315.6z m-34.4-451.8L575.6 232H447.4l-15.9-95.1C455.2 126.1 482 120 512 120c29.7 0 56.3 6.1 79.8 16.6z m-211 36.3l11.4 68.3c4.5 27 27.9 46.8 55.2 46.8h128.1c27.3 0 50.6-19.7 55.2-46.6l11.8-69.2C684.4 213.3 708 274.7 708 344H316c0-69 23.3-130 64.8-171.1zM232 904c0-117.3 74.3-223 184.8-263 19.9-7.2 34.1-25 36.5-46.1 2.5-21-7.1-41.7-24.8-53.3-46.7-30.8-75.4-82.9-81.9-141.6h330.6c-6.4 58.7-35.1 110.8-81.9 141.6-17.7 11.7-27.3 32.3-24.8 53.3s16.6 38.9 36.5 46.1c110.7 40 185 145.7 185 263H232z" p-id="1758"></path></svg>