<svg t="1595827718626" class="icon" viewBox="0 0 1024 1024" version="1.1" xmlns="http://www.w3.org/2000/svg" p-id="804" width="200" height="200"><path d="M844.8 341.333333h68.266667v682.666667h-68.266667z" p-id="805"></path><path d="M204.885333 0h68.266667v1024h-68.266667z" p-id="806"></path><path d="M100.608 85.333333A415.317333 415.317333 0 0 1 0 25.6V0h20.821333a588.8 588.8 0 0 0 94.890667 51.2c64.170667 25.088 98.048 26.88 98.048 26.88v34.730667s-31.232 2.389333-113.152-27.477334zM100.608 280.746667A418.133333 418.133333 0 0 1 0 221.866667v-25.6h20.821333a588.8 588.8 0 0 0 94.890667 51.2c64.170667 25.088 98.048 26.88 98.048 26.88v34.730666s-31.232 1.877333-113.152-28.330666zM256 88.149333s78.250667 139.605333 276.821333 228.778667C712.789333 397.824 844.8 392.021333 844.8 392.021333v36.010667s-154.197333 7.168-343.125333-83.882667C324.949333 258.901333 262.144 162.133333 262.144 162.133333zM256 308.565333s21.162667 54.442667 222.634667 136.533334C696.064 534.357333 844.8 509.354667 844.8 509.354667v36.010666a965.461333 965.461333 0 0 1-379.392-68.266666C307.797333 412.928 256 366.933333 256 366.933333zM966.485333 448.085333a509.866667 509.866667 0 0 0 57.514667 26.624V503.466667h-12.544a517.461333 517.461333 0 0 1-55.210667-22.698667 536.490667 536.490667 0 0 1-61.013333-41.898667v-39.338666a593.92 593.92 0 0 0 71.253333 48.554666zM966.485333 560.554667a509.866667 509.866667 0 0 0 57.514667 26.624v28.501333h-12.544a537.6 537.6 0 0 1-55.210667-22.698667 545.109333 545.109333 0 0 1-61.013333-41.984V512a593.92 593.92 0 0 0 71.253333 48.554667z" p-id="807"></path></svg>