<svg id="图层_1" data-name="图层 1" xmlns="http://www.w3.org/2000/svg" viewBox="0 0 300 300"><defs><style>.cls-1{fill:#f9b900;}</style></defs><title>首页4图标</title><path class="cls-1" d="M150,247.78H71.39c-8.4,0-10.9-2.49-9.73-10.74q2.12-14.89,5.29-29.62a11.58,11.58,0,0,1,8.3-9.14c12.74-3.84,25.48-7.73,38.14-11.79,2.74-.9,4.44-.54,6.12,1.77,14.64,20.05,45.22,20.4,60.23.69,2.19-2.87,4.29-3.33,7.68-2.21,12.19,4,24.45,7.74,36.75,11.44,5,1.48,8,4.38,8.84,9.55,1.68,9.72,3.7,19.39,5.31,29.13,1.28,7.82-1.6,10.91-9.68,10.91Q189.34,247.8,150,247.78ZM132.1,103Q130,88.32,127.91,73.69c-.17-1.1-.31-2.21-.41-3.32-1.17-13.66-.36-14.93,13.26-17.32a52.51,52.51,0,0,1,26.63,2.12c4.2,1.45,5.86,3.82,5.69,8.12-.5,12.15-3,24-4.58,36a14.55,14.55,0,0,0-.15,3.73c4.29-10.69,7-21.79,9.15-33,1-5.29,1-5.34,5.11-1.88,11.1,9.37,17.92,21.15,19.93,35.51a12.12,12.12,0,0,0,2.33,5.53c3.72,5.34,2.68,11.58,2.36,17.58-.07,1.4-1.53,1.39-2.67,1.39-2.9,0-5.8.06-8.69,0-2.28,0-4.42-.16-5.89,2.2-1,1.52-2.84,1.25-4.44,1.25h-71c-.95,0-2.36.24-2.8-.28-4.32-4.92-10-2.9-15.24-3.07-2.89-.09-4.09-.91-3.89-3.88.4-5.94-1-12.21,4.11-17.09.75-.73.63-2.39.81-3.64,2.38-16,10.34-28.54,24-38.55C124.34,78.23,126.84,91,132.11,103Z"/><path class="cls-1" d="M101.11,137.05c.49-1.89-.89-4,1.22-5.06,1.78-.86,3,.75,4.21,1.78,1.74,1.47,3.8,1.6,6,1.6q37.14,0,74.29,0c2.57,0,4.87-.39,6.69-2.27,1.29-1.34,2.81-1.89,4.38-1s.93,2.68.77,4c-1,8.76-1.77,17.58-8.91,24.09-.77.7-1,2-1.42,3.07-4.73,13.23-13.71,22.8-25.93,29.26-9.22,4.9-18.56,4.12-27.4-1.36-11.12-6.9-19.54-16.1-23.83-28.7a6.12,6.12,0,0,0-1.29-2.54c-6.87-6.26-7.59-14.77-8.75-22.93Z"/></svg>