<svg id="图层_1" data-name="图层 1" xmlns="http://www.w3.org/2000/svg" viewBox="0 0 200 200"><defs><style>.cls-1{fill:#fff;}.cls-2{fill:#f9b900;}</style></defs><title>雪山2.0导航版</title><circle class="cls-1" cx="100" cy="100" r="98"/><path class="cls-2" d="M100,155H52.2c-5.11,0-6.63-1.51-5.91-6.52.85-6,1.94-12.05,3.21-18a7,7,0,0,1,5-5.56c7.74-2.33,15.49-4.7,23.19-7.17,1.67-.54,2.7-.33,3.72,1.08,8.9,12.19,27.5,12.4,36.62.42,1.33-1.75,2.61-2,4.67-1.35,7.41,2.44,14.87,4.71,22.35,7,3,.9,4.83,2.66,5.37,5.81,1,5.91,2.25,11.79,3.23,17.7.78,4.76-1,6.64-5.88,6.64Q123.91,155,100,155Zm-10.89-88Q87.85,58,86.57,49.1c-.1-.67-.19-1.34-.25-2-.71-8.31-.22-9.08,8.06-10.54a32,32,0,0,1,16.2,1.3c2.55.87,3.56,2.31,3.45,4.93-.3,7.39-1.82,14.62-2.78,21.91a8.63,8.63,0,0,0-.09,2.27,109,109,0,0,0,5.56-20.08c.63-3.22.62-3.25,3.11-1.14A33.58,33.58,0,0,1,132,67.33a7.32,7.32,0,0,0,1.42,3.36c2.25,3.25,1.62,7,1.43,10.69,0,.85-.93.84-1.63.84-1.76,0-3.52,0-5.28,0-1.39,0-2.69-.1-3.58,1.34-.58.92-1.73.76-2.7.76H78.46c-.58,0-1.44.15-1.71-.17-2.62-3-6.1-1.76-9.26-1.86-1.76-.06-2.49-.56-2.37-2.36.24-3.61-.62-7.43,2.5-10.4.46-.44.39-1.45.49-2.21C69.56,57.61,74.4,50,82.68,43.88c1.72,8,3.24,15.72,6.44,23Z"/><path class="cls-2" d="M70.28,87.63c.29-1.15-.55-2.46.74-3.08,1.08-.52,1.81.46,2.55,1.08a5.22,5.22,0,0,0,3.63,1q22.59,0,45.17,0a5.17,5.17,0,0,0,4.07-1.39,2.06,2.06,0,0,1,2.66-.58c.93.54.57,1.63.47,2.45-.58,5.32-1.07,10.69-5.41,14.65a4.57,4.57,0,0,0-.86,1.86,31.9,31.9,0,0,1-15.77,17.8c-5.61,3-11.29,2.5-16.66-.83-6.76-4.2-11.88-9.79-14.49-17.46a3.7,3.7,0,0,0-.79-1.54c-4.18-3.81-4.61-9-5.31-13.94Z"/></svg>